# xmcd
#
# Track frame offsets:
#	150
#	16395
#	32776
#	54736
#	68307
#	87266
#	100504
#	117127
#	131761
#	146209
#	162633
#
# Disc length: 2401 seconds
#
# Revision: 1
# Processed by: cddbd v1.5.1PL0 Copyright (c) Steve Scherf et al.
# Submitted via: audiograbber 1.83.01
#
DISCID=92095f0b
DTITLE=Richie Pavledis - minstrel
DYEAR=2002
DGENRE=Blues
TTITLE0=In the name of the angel
TTITLE1=Queen fo hearts
TTITLE2=Adam
TTITLE3=The southern land
TTITLE4=Joseph the minstrel
TTITLE5=And I write...
TTITLE6=Stairway to the moon
TTITLE7=Sydbart
TTITLE8=Long dark night of the soul
TTITLE9=Time heals all
TTITLE10=Whisper for peace
EXTD=
EXTT0=
EXTT1=
EXTT2=
EXTT3=
EXTT4=
EXTT5=
EXTT6=
EXTT7=
EXTT8=
EXTT9=
EXTT10=
PLAYORDER=
